<?xml version="1.0" encoding="UTF-8" standalone="no"?>
<!DOCTYPE svg PUBLIC "-//W3C//DTD SVG 1.1//EN" "http://www.w3.org/Graphics/SVG/1.1/DTD/svg11.dtd">
<svg version="1.1" xmlns="http://www.w3.org/2000/svg" xmlns:xlink="http://www.w3.org/1999/xlink" preserveAspectRatio="xMidYMid meet" viewBox="0 0 640 640" width="640" height="640"><defs><path d="M450.31 68.06C455.83 68.06 460.31 72.54 460.31 78.06C460.31 160.71 460.31 398.67 460.31 481.32C460.31 486.84 455.83 491.32 450.31 491.32C375.26 491.32 160.09 491.32 85.04 491.32C79.52 491.32 75.04 486.84 75.04 481.32C75.04 398.67 75.04 160.71 75.04 78.06C75.04 72.54 79.52 68.06 85.04 68.06C160.09 68.06 375.26 68.06 450.31 68.06Z" id="h41IkcVl2K"></path><path d="M437.52 78.14C443.04 78.14 447.52 82.62 447.52 88.14C447.52 165.98 447.52 389.52 447.52 467.36C447.52 472.89 443.04 477.36 437.52 477.36C367.58 477.36 167.77 477.36 97.83 477.36C92.31 477.36 87.83 472.89 87.83 467.36C87.83 389.52 87.83 165.98 87.83 88.14C87.83 82.62 92.31 78.14 97.83 78.14C167.77 78.14 367.58 78.14 437.52 78.14Z" id="c3gX4HtQpb"></path><path d="M140.93 104.69L119.22 104.69L119.22 129.11L151.78 129.11L151.78 114.86L157.21 114.86L157.21 133.18L113.8 133.18L113.8 100.62L140.93 100.62L140.93 104.69ZM139.87 119.36L139.87 119.36L133.58 124.08L121.93 115.34L128.22 110.63L133.58 114.64L148.21 103.67L154.5 108.39L139.87 119.36Z" id="a1RSqcSPEi"></path><path d="M191.32 284.73L406.82 284.73L406.82 303.33L191.32 303.33L191.32 284.73Z" id="e1fEtnN9O"></path><path d="M191.32 347.67L406.82 347.67L406.82 366.28L191.32 366.28L191.32 347.67Z" id="apd1MV30h"></path><path d="M191.32 411.86L406.82 411.86L406.82 430.47L191.32 430.47L191.32 411.86Z" id="d6ZSZHDex"></path><path d="M191.32 107.6L406.82 107.6L406.82 126.2L191.32 126.2L191.32 107.6Z" id="c3MsVr4ns2"></path><path d="M191.32 158.68L406.82 158.68L406.82 177.29L191.32 177.29L191.32 158.68Z" id="amb0Q6eby"></path><path d="M191.32 220.62L406.82 220.62L406.82 239.22L191.32 239.22L191.32 220.62Z" id="coaVXXKP"></path><path d="M140.93 155.78L119.22 155.78L119.22 180.19L151.78 180.19L151.78 165.95L157.21 165.95L157.21 184.26L113.8 184.26L113.8 151.71L140.93 151.71L140.93 155.78ZM139.87 170.45L139.87 170.45L133.58 175.16L121.93 166.43L128.22 161.71L133.58 165.73L148.21 154.76L154.5 159.47L139.87 170.45Z" id="fBOmQGV90"></path><path d="M140.93 217.71L119.22 217.71L119.22 242.13L151.78 242.13L151.78 227.89L157.21 227.89L157.21 246.2L113.8 246.2L113.8 213.64L140.93 213.64L140.93 217.71ZM139.87 232.38L139.87 232.39L133.58 237.1L121.93 228.36L128.22 223.65L133.58 227.67L148.21 216.7L154.5 221.41L139.87 232.38Z" id="a1rxy7QmsS"></path></defs><g><g><g><use xlink:href="#h41IkcVl2K" opacity="1" fill="#3f9c20" fill-opacity="1"></use></g><g><use xlink:href="#c3gX4HtQpb" opacity="1" fill="#ffffff" fill-opacity="1"></use></g><g><use xlink:href="#a1RSqcSPEi" opacity="1" fill="#3db315" fill-opacity="1"></use><g><use xlink:href="#a1RSqcSPEi" opacity="1" fill-opacity="0" stroke="#075d19" stroke-width="0" stroke-opacity="1"></use></g></g><g><use xlink:href="#e1fEtnN9O" opacity="1" fill="#eaf3e7" fill-opacity="1"></use></g><g><use xlink:href="#apd1MV30h" opacity="1" fill="#eaf3e7" fill-opacity="1"></use></g><g><use xlink:href="#d6ZSZHDex" opacity="1" fill="#eaf3e7" fill-opacity="1"></use></g><g><use xlink:href="#c3MsVr4ns2" opacity="1" fill="#eaf3e7" fill-opacity="1"></use></g><g><use xlink:href="#amb0Q6eby" opacity="1" fill="#eaf3e7" fill-opacity="1"></use></g><g><use xlink:href="#coaVXXKP" opacity="1" fill="#eaf3e7" fill-opacity="1"></use></g><g><use xlink:href="#fBOmQGV90" opacity="1" fill="#3db315" fill-opacity="1"></use><g><use xlink:href="#fBOmQGV90" opacity="1" fill-opacity="0" stroke="#075d19" stroke-width="0" stroke-opacity="1"></use></g></g><g><use xlink:href="#a1rxy7QmsS" opacity="1" fill="#3db315" fill-opacity="1"></use><g><use xlink:href="#a1rxy7QmsS" opacity="1" fill-opacity="0" stroke="#075d19" stroke-width="0" stroke-opacity="1"></use></g></g></g></g></svg>